{
  "accessors": [
    {
      "bufferView": 2,
      "componentType": 5126,
      "count": 1584,
      "max": [
        1.095981478691101,
        1.5808138847351074,
        1.8638417720794678
      ],
      "min": [
        -0.9040185809135437,
        -0.4767124652862549,
        -0.4554451107978821
      ],
      "type": "VEC3"
    },
    {
      "bufferView": 2,
      "byteOffset": 19008,
      "componentType": 5126,
      "count": 1584,
      "max": [
        1.0,
        1.0,
        1.0
      ],
      "min": [
        -1.0,
        -1.0,
        -1.0
      ],
      "type": "VEC3"
    },
    {
      "bufferView": 1,
      "componentType": 5126,
      "count": 1584,
      "max": [
        1.0,
        1.0
      ],
      "min": [
        0.0,
        0.0
      ],
      "type": "VEC2"
    },
    {
      "bufferView": 0,
      "componentType": 5125,
      "count": 2841,
      "type": "SCALAR"
    },
    {
      "bufferView": 2,
      "byteOffset": 38016,
      "componentType": 5126,
      "count": 1609,
      "max": [
        1.095981478691101,
        1.5808112621307373,
        1.6953985691070557
      ],
      "min": [
        -0.9040185809135437,
        -0.4191887378692627,
        -0.44571787118911743
      ],
      "type": "VEC3"
    },
    {
      "bufferView": 2,
      "byteOffset": 57324,
      "componentType": 5126,
      "count": 1609,
      "max": [
        1.0,
        1.0,
        1.0
      ],
      "min": [
        -1.0,
        -1.0,
        -1.0
      ],
      "type": "VEC3"
    },
    {
      "bufferView": 1,
      "byteOffset": 12672,
      "componentType": 5126,
      "count": 1609,
      "max": [
        1.0,
        1.0
      ],
      "min": [
        0.0,
        0.0
      ],
      "type": "VEC2"
    },
    {
      "bufferView": 0,
      "byteOffset": 11364,
      "componentType": 5125,
      "count": 2766,
      "type": "SCALAR"
    },
    {
      "bufferView": 2,
      "byteOffset": 76632,
      "componentType": 5126,
      "count": 45637,
      "max": [
        0.474151611328125,
        1.4190280437469482,
        1.2377383708953857
      ],
      "min": [
        -0.8914060592651367,
        -0.34714818000793457,
        -0.3820405602455139
      ],
      "type": "VEC3"
    },
    {
      "bufferView": 2,
      "byteOffset": 624276,
      "componentType": 5126,
      "count": 45637,
      "max": [
        1.0,
        1.0,
        1.0
      ],
      "min": [
        -1.0,
        -1.0,
        -1.0
      ],
      "type": "VEC3"
    },
    {
      "bufferView": 1,
      "byteOffset": 25544,
      "componentType": 5126,
      "count": 45637,
      "max": [
        1.0008841753005981,
        1.0000001192092896
      ],
      "min": [
        -0.0008840913651511073,
        0.0
      ],
      "type": "VEC2"
    },
    {
      "bufferView": 0,
      "byteOffset": 22428,
      "componentType": 5125,
      "count": 246804,
      "type": "SCALAR"
    },
    {
      "bufferView": 2,
      "byteOffset": 1171920,
      "componentType": 5126,
      "count": 1156,
      "max": [
        0.8110302686691284,
        1.5843080282211304,
        1.3303520679473877
      ],
      "min": [
        -0.7434359788894653,
        -0.2595365643501282,
        -0.4560241103172302
      ],
      "type": "VEC3"
    },
    {
      "bufferView": 2,
      "byteOffset": 1185792,
      "componentType": 5126,
      "count": 1156,
      "max": [
        1.0,
        1.0,
        1.0
      ],
      "min": [
        -1.0,
        -1.0,
        -1.0
      ],
      "type": "VEC3"
    },
    {
      "bufferView": 1,
      "byteOffset": 390640,
      "componentType": 5126,
      "count": 1156,
      "max": [
        1.0,
        1.0
      ],
      "min": [
        0.0,
        0.0
      ],
      "type": "VEC2"
    },
    {
      "bufferView": 0,
      "byteOffset": 1009644,
      "componentType": 5125,
      "count": 3240,
      "type": "SCALAR"
    },
    {
      "bufferView": 2,
      "byteOffset": 1199664,
      "componentType": 5126,
      "count": 240,
      "max": [
        -0.4915139973163605,
        0.8408129811286926,
        1.8340513706207275
      ],
      "min": [
        -0.8987270593643188,
        0.42650407552719116,
        0.5031872987747192
      ],
      "type": "VEC3"
    },
    {
      "bufferView": 2,
      "byteOffset": 1202544,
      "componentType": 5126,
      "count": 240,
      "max": [
        1.0,
        0.9803658127784729,
        1.0
      ],
      "min": [
        -1.0,
        -0.9803656935691833,
        -0.9811963438987732
      ],
      "type": "VEC3"
    },
    {
      "bufferView": 1,
      "byteOffset": 399888,
      "componentType": 5126,
      "count": 240,
      "max": [
        1.0,
        1.0
      ],
      "min": [
        0.0,
        0.0
      ],
      "type": "VEC2"
    },
    {
      "bufferView": 0,
      "byteOffset": 1022604,
      "componentType": 5125,
      "count": 402,
      "type": "SCALAR"
    },
    {
      "bufferView": 2,
      "byteOffset": 1205424,
      "componentType": 5126,
      "count": 2517,
      "max": [
        0.7517858743667603,
        1.5785102844238281,
        0.5157747864723206
      ],
      "min": [
        -0.8737897276878357,
        0.2379361391067505,
        -0.45609837770462036
      ],
      "type": "VEC3"
    },
    {
      "bufferView": 2,
      "byteOffset": 1235628,
      "componentType": 5126,
      "count": 2517,
      "max": [
        1.0,
        1.0,
        1.0
      ],
      "min": [
        -1.0,
        -1.0,
        -1.0
      ],
      "type": "VEC3"
    },
    {
      "bufferView": 1,
      "byteOffset": 401808,
      "componentType": 5126,
      "count": 2517,
      "max": [
        1.0,
        1.0000001192092896
      ],
      "min": [
        0.0,
        0.0
      ],
      "type": "VEC2"
    },
    {
      "bufferView": 0,
      "byteOffset": 1024212,
      "componentType": 5125,
      "count": 4203,
      "type": "SCALAR"
    },
    {
      "bufferView": 2,
      "byteOffset": 1265832,
      "componentType": 5126,
      "count": 5883,
      "max": [
        -0.26483646035194397,
        1.3416032791137695,
        1.805553913116455
      ],
      "min": [
        -0.9015405178070068,
        -0.4045151472091675,
        -0.44631916284561157
      ],
      "type": "VEC3"
    },
    {
      "bufferView": 2,
      "byteOffset": 1336428,
      "componentType": 5126,
      "count": 5883,
      "max": [
        1.0,
        1.0,
        1.0
      ],
      "min": [
        -1.0,
        -1.0,
        -1.0
      ],
      "type": "VEC3"
    },
    {
      "bufferView": 1,
      "byteOffset": 421944,
      "componentType": 5126,
      "count": 5883,
      "max": [
        1.0,
        1.0
      ],
      "min": [
        0.0,
        0.0
      ],
      "type": "VEC2"
    },
    {
      "bufferView": 0,
      "byteOffset": 1041024,
      "componentType": 5125,
      "count": 10419,
      "type": "SCALAR"
    }
  ],
  "asset": {
    "extras": {
      "author": "RyeNguyen (https://sketchfab.com/RyeNguyen)",
      "license": "CC-BY-4.0 (http://creativecommons.org/licenses/by/4.0/)",
      "source": "https://sketchfab.com/3d-models/low-poly-laundry-room-scene-97237de0dfe44d6f9421cc0e98e23f69",
      "title": "Low Poly Laundry Room Scene"
    },
    "generator": "Sketchfab-12.67.0",
    "version": "2.0"
  },
  "bufferViews": [
    {
      "buffer": 0,
      "byteLength": 1082700,
      "name": "floatBufferViews",
      "target": 34963
    },
    {
      "buffer": 0,
      "byteLength": 469008,
      "byteOffset": 1082700,
      "byteStride": 8,
      "name": "floatBufferViews",
      "target": 34962
    },
    {
      "buffer": 0,
      "byteLength": 1407024,
      "byteOffset": 1551708,
      "byteStride": 12,
      "name": "floatBufferViews",
      "target": 34962
    }
  ],
  "buffers": [
    {
      "byteLength": 2958732,
      "uri": "scene.bin"
    }
  ],
  "extensionsUsed": [
    "KHR_materials_clearcoat"
  ],
  "materials": [
    {
      "doubleSided": true,
      "name": "white",
      "pbrMetallicRoughness": {
        "baseColorFactor": [
          0.585837,
          0.556669,
          0.427058,
          1.0
        ],
        "metallicFactor": 0.0,
        "roughnessFactor": 0.8607691319855386
      }
    },
    {
      "doubleSided": true,
      "extensions": {
        "KHR_materials_clearcoat": {
          "clearcoatFactor": 1.0,
          "clearcoatRoughnessFactor": 0.04
        }
      },
      "name": "black",
      "pbrMetallicRoughness": {
        "baseColorFactor": [
          0.0520282,
          0.0520282,
          0.0520282,
          1.0
        ],
        "metallicFactor": 0.4683333425810843
      }
    },
    {
      "doubleSided": true,
      "name": "grey",
      "pbrMetallicRoughness": {
        "baseColorFactor": [
          0.499263,
          0.499263,
          0.499263,
          1.0
        ],
        "metallicFactor": 0.0,
        "roughnessFactor": 0.8883613993349523
      }
    },
    {
      "doubleSided": true,
      "name": "brown",
      "pbrMetallicRoughness": {
        "baseColorFactor": [
          0.598867,
          0.420202,
          0.211066,
          1.0
        ],
        "metallicFactor": 0.0,
        "roughnessFactor": 0.9009228332370675
      }
    },
    {
      "doubleSided": true,
      "name": "green",
      "pbrMetallicRoughness": {
        "baseColorFactor": [
          0.245114,
          0.8,
          0.191181,
          1.0
        ],
        "metallicFactor": 0.0,
        "roughnessFactor": 0.8573222033004897
      }
    },
    {
      "doubleSided": true,
      "name": "grey_dark",
      "pbrMetallicRoughness": {
        "baseColorFactor": [
          0.269647,
          0.269647,
          0.269647,
          1.0
        ],
        "metallicFactor": 0.0,
        "roughnessFactor": 0.9397050978071114
      }
    },
    {
      "doubleSided": true,
      "name": "white_light",
      "pbrMetallicRoughness": {
        "baseColorFactor": [
          0.730307,
          0.8,
          0.786579,
          1.0
        ],
        "metallicFactor": 0.0,
        "roughnessFactor": 0.824644357888249
      }
    }
  ],
  "meshes": [
    {
      "name": "room_white_0",
      "primitives": [
        {
          "attributes": {
            "NORMAL": 1,
            "POSITION": 0,
            "TEXCOORD_0": 2
          },
          "indices": 3,
          "material": 0,
          "mode": 4
        }
      ]
    },
    {
      "name": "room_black_0",
      "primitives": [
        {
          "attributes": {
            "NORMAL": 5,
            "POSITION": 4,
            "TEXCOORD_0": 6
          },
          "indices": 7,
          "material": 1,
          "mode": 4
        }
      ]
    },
    {
      "name": "room_grey_0",
      "primitives": [
        {
          "attributes": {
            "NORMAL": 9,
            "POSITION": 8,
            "TEXCOORD_0": 10
          },
          "indices": 11,
          "material": 2,
          "mode": 4
        }
      ]
    },
    {
      "name": "room_brown_0",
      "primitives": [
        {
          "attributes": {
            "NORMAL": 13,
            "POSITION": 12,
            "TEXCOORD_0": 14
          },
          "indices": 15,
          "material": 3,
          "mode": 4
        }
      ]
    },
    {
      "name": "room_green_0",
      "primitives": [
        {
          "attributes": {
            "NORMAL": 17,
            "POSITION": 16,
            "TEXCOORD_0": 18
          },
          "indices": 19,
          "material": 4,
          "mode": 4
        }
      ]
    },
    {
      "name": "room_grey dark_0",
      "primitives": [
        {
          "attributes": {
            "NORMAL": 21,
            "POSITION": 20,
            "TEXCOORD_0": 22
          },
          "indices": 23,
          "material": 5,
          "mode": 4
        }
      ]
    },
    {
      "name": "room_white light_0",
      "primitives": [
        {
          "attributes": {
            "NORMAL": 25,
            "POSITION": 24,
            "TEXCOORD_0": 26
          },
          "indices": 27,
          "material": 6,
          "mode": 4
        }
      ]
    }
  ],
  "nodes": [
    {
      "children": [
        1
      ],
      "matrix": [
        1.0,
        0.0,
        0.0,
        0.0,
        0.0,
        2.220446049250313e-16,
        -1.0,
        0.0,
        0.0,
        1.0,
        2.220446049250313e-16,
        0.0,
        0.0,
        0.0,
        0.0,
        1.0
      ],
      "name": "Sketchfab_model"
    },
    {
      "children": [
        2
      ],
      "matrix": [
        1.0,
        0.0,
        0.0,
        0.0,
        0.0,
        0.0,
        1.0,
        0.0,
        0.0,
        -1.0,
        0.0,
        0.0,
        0.0,
        0.0,
        0.0,
        1.0
      ],
      "name": "021121ac86464c189719126e46c5e0ff.fbx"
    },
    {
      "children": [
        3,
        11,
        14
      ],
      "name": "RootNode"
    },
    {
      "children": [
        4,
        5,
        6,
        7,
        8,
        9,
        10
      ],
      "matrix": [
        480.2683410644531,
        0.0,
        0.0,
        0.0,
        -0.0,
        -0.00010369094793882191,
        -636.4505004882728,
        0.0,
        0.0,
        643.5713500976477,
        -0.00010485108159502834,
        0.0,
        -46.09684753417969,
        292.46405029296875,
        394.8183288574219,
        1.0
      ],
      "name": "room"
    },
    {
      "mesh": 0,
      "name": "room_white_0"
    },
    {
      "mesh": 1,
      "name": "room_black_0"
    },
    {
      "mesh": 2,
      "name": "room_grey_0"
    },
    {
      "mesh": 3,
      "name": "room_brown_0"
    },
    {
      "mesh": 4,
      "name": "room_green_0"
    },
    {
      "mesh": 5,
      "name": "room_grey dark_0"
    },
    {
      "mesh": 6,
      "name": "room_white light_0"
    },
    {
      "children": [
        12
      ],
      "matrix": [
        17.605651378601916,
        81.81980431568027,
        -54.73171531460457,
        0.0,
        70.91207345203074,
        28.021998954259033,
        64.7012010193111,
        0.0,
        68.27531154800852,
        -50.202458224533196,
        -53.086660239249646,
        0.0,
        783.9631958007813,
        1225.3642578125,
        1395.5782470703125,
        1.0
      ],
      "name": "Light"
    },
    {
      "children": [
        13
      ],
      "matrix": [
        1.0,
        0.0,
        0.0,
        0.0,
        0.0,
        2.220446049250313e-16,
        1.0,
        0.0,
        0.0,
        -1.0,
        2.220446049250313e-16,
        0.0,
        0.0,
        0.0,
        0.0,
        1.0
      ],
      "name": "Object_12"
    },
    {
      "name": "Object_13"
    },
    {
      "children": [
        15
      ],
      "matrix": [
        -32.6570492118494,
        31.21040694109424,
        -89.21562439027227,
        0.0,
        81.51040253727113,
        57.08507762790337,
        -9.866441331575512,
        0.0,
        47.849455599840326,
        -75.94210896168474,
        -44.08203358796543,
        0.0,
        1712.990234375,
        1505.3887939453125,
        24.859619140625,
        1.0
      ],
      "name": "Light.001"
    },
    {
      "children": [
        16
      ],
      "matrix": [
        1.0,
        0.0,
        0.0,
        0.0,
        0.0,
        2.220446049250313e-16,
        1.0,
        0.0,
        0.0,
        -1.0,
        2.220446049250313e-16,
        0.0,
        0.0,
        0.0,
        0.0,
        1.0
      ],
      "name": "Object_15"
    },
    {
      "name": "Object_16"
    }
  ],
  "scene": 0,
  "scenes": [
    {
      "name": "Sketchfab_Scene",
      "nodes": [
        0
      ]
    }
  ]
}
